# xmcd
#
# Track frame offsets:
#	182
#	5707
#	8700
#	11862
#	14892
#	18045
#	24680
#	30545
#	36720
#	41380
#	47070
#	51577
#	57002
#	61750
#	68710
#	75380
#	82837
#	90480
#	95785
#	98950
#	103255
#	111367
#	119002
#	124882
#	133702
#	140472
#	145835
#	152950
#	157917
#	165932
#	169847
#	177442
#	183452
#	191507
#	194850
#	200962
#	204310
#	207570
#	211272
#	216077
#	221042
#	224442
#	228450
#	233577
#	238077
#	242167
#	244722
#	251480
#	254142
#	258882
#	264197
#	270055
#	275957
#
# Disc length: 3765 seconds
#
# Revision: 0
# Processed by: cddbd v1.4PL0 Copyright (c) Steve Scherf et al.
# Submitted via: EasyCDDAExtractor 4.5.0.2
#
DISCID=180eb335
DTITLE=The Ranch Hands - Switched On Country
DYEAR=1900
DGENRE=Country
TTITLE0=Hello I Love You
TTITLE1=Sundown
TTITLE2=Woman Beautiful Woman
TTITLE3=Ruby, Don't Take Your Love To Town
TTITLE4=Gentle On My Mind
TTITLE5=Jolene
TTITLE6=Let Your Love Flow
TTITLE7=Rhinestone Cowboy
TTITLE8=Oh, Lonesome Me
TTITLE9=Half The Way
TTITLE10=If I Said You Had A Beautiful Body
TTITLE11=Detroit City
TTITLE12=Down The Mississippi
TTITLE13=Mississippi
TTITLE14=Some Days Are Diamonds
TTITLE15=Slow Hand
TTITLE16=I Don't Wanna Play House
TTITLE17=Your Cheatin' Heart
TTITLE18=Listen To The Radio
TTITLE19=You Never Gave Up On Me
TTITLE20=Always On My Mind
TTITLE21=Love Me Tender
TTITLE22=Honey
TTITLE23=The Sweetest Things
TTITLE24=Only Love
TTITLE25=Annie's Song
TTITLE26=Me And Bobby McGee
TTITLE27=Help Me Make Through The Night
TTITLE28=When You Were Sweet Sixteen
TTITLE29=Love Hurts
TTITLE30=You Needed Me
TTITLE31=Blue Eyes Crying In The Rain
TTITLE32=I Will Always Love You
TTITLE33=Wolverton Mountain
TTITLE34=The Coward Of The County
TTITLE35=Some Broken Hearts Never Mend
TTITLE36=Take Me Home Country Roads
TTITLE37=All I Ever Need Is You
TTITLE38=Heaven Is My Woman's Love
TTITLE39=You Asked Me To
TTITLE40=Before The Next Teardrop Falls
TTITLE41=Banks Of The Ohio
TTITLE42=If You Love Me (Let Me Know)
TTITLE43=You're My Best Friend
TTITLE44=I Recall A Gypsy Woman
TTITLE45=The Shelter Of Your Eyes
TTITLE46=Silver Threads And Golden Needles
TTITLE47=Honey Come Back
TTITLE48=The Most Beautiful Girl In The World
TTITLE49=Have I Told You Lately That I Love You
TTITLE50=I Walk The Line
TTITLE51=Take Me Back
TTITLE52=Back Home Again
EXTD=
EXTT0=
EXTT1=
EXTT2=
EXTT3=
EXTT4=
EXTT5=
EXTT6=
EXTT7=
EXTT8=
EXTT9=
EXTT10=
EXTT11=
EXTT12=
EXTT13=
EXTT14=
EXTT15=
EXTT16=
EXTT17=
EXTT18=
EXTT19=
EXTT20=
EXTT21=
EXTT22=
EXTT23=
EXTT24=
EXTT25=
EXTT26=
EXTT27=
EXTT28=
EXTT29=
EXTT30=
EXTT31=
EXTT32=
EXTT33=
EXTT34=
EXTT35=
EXTT36=
EXTT37=
EXTT38=
EXTT39=
EXTT40=
EXTT41=
EXTT42=
EXTT43=
EXTT44=
EXTT45=
EXTT46=
EXTT47=
EXTT48=
EXTT49=
EXTT50=
EXTT51=
EXTT52=
PLAYORDER=
